<?xml version="1.0" encoding="UTF-8"?>
<svg width="256px" height="256px" viewBox="0 0 256 256" version="1.1" xmlns="http://www.w3.org/2000/svg">
    <g fill="#4F46E5">
        <path d="M64,32 L192,32 C209.673112,32 224,46.326888 224,64 L224,192 C224,209.673112 209.673112,224 192,224 L64,224 C46.326888,224 32,209.673112 32,192 L32,64 C32,46.326888 46.326888,32 64,32 Z M80,80 L80,96 L176,96 L176,80 L80,80 Z M80,120 L80,136 L144,136 L144,120 L80,120 Z M80,160 L80,176 L176,176 L176,160 L80,160 Z"/>
    </g>
</svg>